#N canvas 766 120 1253 926 10;
#X floatatom 157 199 5 0 0 0 - - -, f 5;
#X floatatom 287 200 5 0 0 0 - - -, f 5;
#X obj 154 354 osc~;
#X obj 161 263 * 10;
#X obj 293 347 osc~;
#X obj 300 256 * 10;
#X obj 203 455 dac~;
#X obj 85 278 vsl 15 128 0 127 0 0 empty empty empty 0 -9 0 10 -262144
-1 -1 0 1;
#X obj 382 223 vsl 50 500 0 127 0 0 empty empty empty 0 -9 0 10 -4034
-258113 -1 0 1;
#X text 61 457 GD;
#X obj 901 241 gemwin 25;
#X msg 881 108 dimen 800 600 \, border 1 \, create \, 1;
#X msg 895 170 destroy;
#X obj 919 346 cnv 15 250 350 empty empty empty 20 12 0 14 -228992
-66577 0;
#X obj 921 377 cnv 15 155 250 empty empty empty 20 12 0 14 -24198 -66577
0;
#X obj 921 720 pix_texture;
#X obj 933 382 bng 25 250 50 0 empty empty empty 0 -6 0 8 -262144 -1
-1;
#X text 1006 346 open a supported;
#X text 1010 359 movie-clip;
#X obj 946 576 unpack 0 0 0;
#X floatatom 936 599 5 0 0 3 length - -, f 5;
#X floatatom 985 599 5 0 0 3 width - -, f 5;
#X obj 990 557 bng 15 250 50 0 empty empty end_reached 20 7 0 10 -262144
-1 -1;
#X floatatom 972 522 5 0 10000 1 frame# - -, f 5;
#X obj 933 411 openpanel;
#X msg 933 431 open \$1;
#X obj 921 540 pix_film;
#X msg 939 474 auto \$1;
#X obj 939 456 tgl 15 0 empty empty empty 0 -6 0 8 -262144 -1 -1 0
1;
#X msg 950 498 colorspace Grey;
#X obj 585 467 f;
#X obj 618 467 + 1;
#X obj 585 428 metro 40;
#X obj 585 364 tgl 15 0 empty empty empty 17 7 0 10 -262144 -1 -1 0
1;
#X obj 573 19 moses 70;
#X msg 694 167 1;
#X obj 646 138 t b;
#X msg 646 167 0;
#X obj 573 121 t b b;
#X msg 573 169 1;
#X msg 730 144 1;
#X obj 573 77 moses 55;
#X msg 848 54 dimen 1280 1024 \, border 1 \, create \, 1;
#X msg 605 156 -1;
#X obj 19 261 vsl 50 500 0 127 0 0 empty empty empty 0 -9 0 10 -4034
-258113 -1 0 1;
#X obj 155 121 ctlin 33 1;
#X obj 285 122 ctlin 32 1;
#X obj 626 50 t b b b f;
#X msg 766 142 40;
#X obj 755 79 moses 90;
#X obj 808 145 t b b b f;
#X msg 806 183 20;
#X obj 650 466 % 2840;
#X msg 700 402 0;
#X obj 640 589 r mesure;
#X floatatom 655 636 5 0 0 0 - - -, f 5;
#X obj 921 352 gemhead 99;
#X obj 921 742 rectangle 6.334 4;
#X obj 655 655 maxlib/scale 0.5 4.8 0 3177;
#X obj 712 763 alpha;
#X obj 715 720 colorRGB 1 1 1 0.5;
#X connect 0 0 3 0;
#X connect 0 0 7 0;
#X connect 0 0 44 0;
#X connect 1 0 5 0;
#X connect 1 0 8 0;
#X connect 2 0 6 0;
#X connect 2 0 6 1;
#X connect 3 0 2 0;
#X connect 4 0 6 0;
#X connect 4 0 6 1;
#X connect 5 0 4 0;
#X connect 11 0 10 0;
#X connect 12 0 10 0;
#X connect 15 0 57 0;
#X connect 16 0 24 0;
#X connect 19 0 20 0;
#X connect 19 1 21 0;
#X connect 20 0 52 1;
#X connect 23 0 26 1;
#X connect 24 0 25 0;
#X connect 25 0 26 0;
#X connect 26 0 60 0;
#X connect 26 1 19 0;
#X connect 26 2 22 0;
#X connect 27 0 26 0;
#X connect 28 0 27 0;
#X connect 29 0 26 0;
#X connect 30 0 31 0;
#X connect 30 0 23 0;
#X connect 31 0 52 0;
#X connect 32 0 30 0;
#X connect 33 0 32 0;
#X connect 34 0 41 0;
#X connect 34 1 47 0;
#X connect 35 0 33 0;
#X connect 36 0 37 0;
#X connect 37 0 33 0;
#X connect 38 0 39 0;
#X connect 38 1 43 0;
#X connect 39 0 33 0;
#X connect 40 0 31 1;
#X connect 41 0 38 0;
#X connect 41 1 36 0;
#X connect 42 0 10 0;
#X connect 43 0 31 1;
#X connect 45 0 0 0;
#X connect 46 0 1 0;
#X connect 46 0 34 0;
#X connect 47 0 35 0;
#X connect 47 1 40 0;
#X connect 47 2 48 0;
#X connect 47 3 49 0;
#X connect 48 0 32 1;
#X connect 49 1 50 0;
#X connect 50 0 51 0;
#X connect 51 0 32 1;
#X connect 52 0 30 1;
#X connect 53 0 30 1;
#X connect 54 0 55 0;
#X connect 55 0 58 0;
#X connect 56 0 26 0;
#X connect 58 0 23 0;
#X connect 59 0 15 0;
#X connect 60 0 59 0;
