#N canvas 558 101 1253 926 10;
#X floatatom 157 199 5 0 0 0 - - -, f 5;
#X floatatom 287 200 5 0 0 0 - - -, f 5;
#X obj 154 354 osc~;
#X obj 161 263 * 10;
#X obj 293 347 osc~;
#X obj 300 256 * 10;
#X obj 203 455 dac~;
#X obj 85 278 vsl 15 128 0 127 0 0 empty empty empty 0 -9 0 10 -262144
-1 -1 0 1;
#X obj 382 223 vsl 50 500 0 127 0 0 empty empty empty 0 -9 0 10 -4034
-258113 -1 0 1;
#X text 61 457 GD;
#X obj 901 241 gemwin 25;
#X msg 881 108 dimen 800 600 \, border 1 \, create \, 1;
#X msg 895 170 destroy;
#X obj 919 346 cnv 15 250 350 empty empty empty 20 12 0 14 -228992
-66577 0;
#X obj 921 377 cnv 15 155 250 empty empty empty 20 12 0 14 -24198 -66577
0;
#X obj 922 749 pix_texture;
#X obj 933 382 bng 25 250 50 0 empty empty empty 0 -6 0 8 -262144 -1
-1;
#X text 1006 346 open a supported;
#X text 1010 359 movie-clip;
#X obj 946 576 unpack 0 0 0;
#X floatatom 936 599 5 0 0 3 length - -, f 5;
#X floatatom 985 599 5 0 0 3 width - -, f 5;
#X obj 990 557 bng 15 250 50 0 empty empty end_reached 20 7 0 10 -262144
-1 -1;
#X floatatom 972 522 0 0 10000 1 frame# - -;
#X obj 933 411 openpanel;
#X msg 933 431 open \$1;
#X obj 921 540 pix_film;
#X msg 939 474 auto \$1;
#X obj 939 456 tgl 15 0 empty empty empty 0 -6 0 8 -262144 -1 -1 0
1;
#X msg 950 498 colorspace Grey;
#X obj 585 467 f;
#X obj 618 467 + 1;
#X obj 585 428 metro 40;
#X obj 585 364 tgl 15 0 empty empty empty 17 7 0 10 -262144 -1 -1 0
1;
#X obj 573 19 moses 70;
#X msg 694 167 1;
#X obj 646 138 t b;
#X msg 646 167 0;
#X obj 573 121 t b b;
#X msg 573 169 1;
#X msg 730 144 1;
#X obj 573 77 moses 55;
#X msg 848 54 dimen 1280 1024 \, border 1 \, create \, 1;
#X msg 605 156 -1;
#X obj 19 261 vsl 50 500 0 127 0 0 empty empty empty 0 -9 0 10 -4034
-258113 -1 0 1;
#X obj 155 121 ctlin 33 1;
#X obj 285 122 ctlin 32 1;
#X obj 626 50 t b b b f;
#X msg 766 142 40;
#X obj 755 79 moses 90;
#X obj 808 145 t b b b f;
#X msg 806 183 20;
#X obj 650 466 % 2840;
#X msg 700 402 0;
#X obj 629 513 r mesure;
#X floatatom 655 636 5 0 0 0 - - -, f 5;
#X obj 921 352 gemhead 99;
#X obj 922 722 alpha;
#X msg 867 80 dimen 1024 768 \, offset 1920 0 \, border 0 \, create
\, 1;
#X obj 735 566 int;
#X obj 465 650 metro 10;
#X obj 465 625 loadbang;
#X obj 465 677 t b b;
#X obj 500 702 s \$0-link;
#X obj 465 728 s \$0-mass;
#X obj 484 769 link \$0-link 0 1 1;
#X obj 484 817 link \$0-link 0 1 1;
#X obj 485 868 link \$0-link 0 1 1;
#X obj 486 919 link \$0-link 0 1 1;
#X obj 487 968 link \$0-link 0 1 1;
#X obj 487 1018 link \$0-link 0 1 1;
#X obj 487 1068 link \$0-link 0 1 1;
#X obj 487 1117 link \$0-link 0 1 1;
#X obj 484 793 mass \$0-mass 30;
#X obj 485 843 mass \$0-mass 30;
#X obj 486 894 mass \$0-mass 30;
#X obj 486 944 mass \$0-mass 30;
#X obj 487 993 mass \$0-mass 30;
#X obj 487 1043 mass \$0-mass 30;
#X obj 487 1092 mass \$0-mass 30;
#X obj 725 796 hsl 128 15 0 127 0 0 empty empty empty -2 -6 0 8 -262144
-1 -1 0 1;
#X obj 725 811 hsl 128 15 0 127 0 0 empty empty empty -2 -6 0 8 -262144
-1 -1 0 1;
#X obj 725 826 hsl 128 15 0 127 0 0 empty empty empty -2 -6 0 8 -262144
-1 -1 0 1;
#X obj 725 841 hsl 128 15 0 127 0 0 empty empty empty -2 -6 0 8 -262144
-1 -1 0 1;
#X obj 725 856 hsl 128 15 0 127 0 0 empty empty empty -2 -6 0 8 -262144
-1 -1 0 1;
#X obj 725 871 hsl 128 15 0 127 0 0 empty empty empty -2 -6 0 8 -262144
-1 -1 0 1;
#X obj 725 886 hsl 128 15 0 127 0 0 empty empty empty -2 -6 0 8 -262144
-1 -1 0 1;
#X obj 725 901 hsl 128 15 0 127 0 0 empty empty empty -2 -6 0 8 -262144
-1 -1 0 1;
#X obj 725 916 hsl 128 15 0 127 0 0 empty empty empty -2 -6 0 8 -262144
-1 -1 6400 1;
#X obj 648 745 loadbang;
#X msg 648 769 64;
#X text 872 792 <- move here;
#X text 871 913 <- diferents link to this points;
#X text 1077 964 <- normal link;
#X text 1077 1045 <- repulsive link;
#X text 1077 1018 <- link with minimal value;
#X msg 676 1068 setLmax 300 \, setL 0 \, setLmin 0 \, setK 0 \, setD
10;
#X text 1078 1069 <- viscosity link;
#X msg 677 964 setLmax 300 \, setL 0 \, setLmin 0 \, setK 1 \, setD
1;
#X msg 676 991 setLmax 30 \, setL 0 \, setLmin 0 \, setK 1 \, setD
1;
#X msg 676 1016 setLmax 300 \, setL 30 \, setLmin 30 \, setK 1 \, setD
1;
#X msg 676 1041 setLmax 30 \, setL 30 \, setLmin 0 \, setK 1 \, setD
1;
#X text 1078 989 <- link can break if deformation is to big;
#X text 775 627 This is an exemple of diferents comportement of a link
;
#X floatatom 726 751 5 0 0 0 - - -, f 5;
#X obj 1019 1050 loadbang;
#X floatatom 1028 599 5 0 0 3 height - -, f 5;
#X obj 653 697 maxlib/scale 0 127 0 32400;
#X obj 1072 759 * 1080;
#X floatatom 1056 701 5 0 0 0 - - -, f 5;
#X obj 1067 730 / 1440;
#X obj 922 771 rectangle 5.334 4;
#X obj 922 697 colorRGB 1 1 1 1;
#X obj 629 576 moses 5.7;
#X obj 655 655 maxlib/scale 5.7 0.6 0 127;
#X obj 631 545 moses 0.56;
#X connect 0 0 3 0;
#X connect 0 0 7 0;
#X connect 0 0 44 0;
#X connect 1 0 5 0;
#X connect 1 0 8 0;
#X connect 2 0 6 0;
#X connect 2 0 6 1;
#X connect 3 0 2 0;
#X connect 4 0 6 0;
#X connect 4 0 6 1;
#X connect 5 0 4 0;
#X connect 11 0 10 0;
#X connect 12 0 10 0;
#X connect 15 0 111 0;
#X connect 16 0 24 0;
#X connect 19 0 20 0;
#X connect 19 1 21 0;
#X connect 19 2 106 0;
#X connect 20 0 52 1;
#X connect 23 0 26 1;
#X connect 24 0 25 0;
#X connect 25 0 26 0;
#X connect 26 0 112 0;
#X connect 26 1 19 0;
#X connect 26 2 22 0;
#X connect 27 0 26 0;
#X connect 28 0 27 0;
#X connect 29 0 26 0;
#X connect 30 0 31 0;
#X connect 30 0 23 0;
#X connect 31 0 52 0;
#X connect 32 0 30 0;
#X connect 33 0 32 0;
#X connect 34 0 41 0;
#X connect 34 1 47 0;
#X connect 35 0 33 0;
#X connect 36 0 37 0;
#X connect 37 0 33 0;
#X connect 38 0 39 0;
#X connect 38 1 43 0;
#X connect 39 0 33 0;
#X connect 40 0 31 1;
#X connect 41 0 38 0;
#X connect 41 1 36 0;
#X connect 42 0 10 0;
#X connect 43 0 31 1;
#X connect 45 0 0 0;
#X connect 46 0 1 0;
#X connect 46 0 34 0;
#X connect 47 0 35 0;
#X connect 47 1 40 0;
#X connect 47 2 48 0;
#X connect 47 3 49 0;
#X connect 48 0 32 1;
#X connect 49 1 50 0;
#X connect 50 0 51 0;
#X connect 51 0 32 1;
#X connect 52 0 30 1;
#X connect 53 0 30 1;
#X connect 54 0 115 0;
#X connect 55 0 114 0;
#X connect 56 0 26 0;
#X connect 57 0 15 0;
#X connect 58 0 10 0;
#X connect 59 0 23 0;
#X connect 60 0 62 0;
#X connect 61 0 60 0;
#X connect 62 0 64 0;
#X connect 62 1 63 0;
#X connect 65 1 73 0;
#X connect 66 0 73 0;
#X connect 66 1 74 0;
#X connect 67 0 74 0;
#X connect 67 1 75 0;
#X connect 68 0 75 0;
#X connect 68 1 76 0;
#X connect 69 0 76 0;
#X connect 69 1 77 0;
#X connect 70 0 77 0;
#X connect 70 1 78 0;
#X connect 71 0 78 0;
#X connect 71 1 79 0;
#X connect 72 0 79 0;
#X connect 73 0 65 1;
#X connect 73 0 66 0;
#X connect 73 0 81 0;
#X connect 74 0 66 1;
#X connect 74 0 67 0;
#X connect 74 0 82 0;
#X connect 75 0 67 1;
#X connect 75 0 68 0;
#X connect 75 0 83 0;
#X connect 76 0 68 1;
#X connect 76 0 69 0;
#X connect 76 0 84 0;
#X connect 77 0 69 1;
#X connect 77 0 70 0;
#X connect 77 0 85 0;
#X connect 78 0 70 1;
#X connect 78 0 71 0;
#X connect 78 0 86 0;
#X connect 79 0 71 1;
#X connect 79 0 72 0;
#X connect 79 0 87 0;
#X connect 79 0 107 0;
#X connect 80 0 65 0;
#X connect 80 0 104 0;
#X connect 88 0 72 1;
#X connect 89 0 90 0;
#X connect 90 0 88 0;
#X connect 96 0 72 0;
#X connect 98 0 72 0;
#X connect 99 0 72 0;
#X connect 100 0 72 0;
#X connect 101 0 72 0;
#X connect 105 0 96 0;
#X connect 107 0 59 0;
#X connect 108 0 111 2;
#X connect 109 0 110 0;
#X connect 109 0 111 1;
#X connect 110 0 108 0;
#X connect 112 0 57 0;
#X connect 113 0 55 0;
#X connect 114 0 65 0;
#X connect 115 1 113 0;
